<svg width="124" height="32" viewBox="0 0 124 32" fill="none" xmlns="http://www.w3.org/2000/svg">
<path d="M59.1479 25.0383H55.322C55.2978 25.0383 55.2978 25.0383 55.2857 25.0271L51.9925 21.3342L48.6994 25.0271C48.6873 25.0383 48.6752 25.0383 48.6631 25.0383H45.5999C45.5757 25.0383 45.5636 25.0271 45.5515 25.016C45.5515 25.0049 45.5515 24.9827 45.5636 24.9715L50.4186 19.4988L45.6242 14.0818C45.6121 14.0595 45.612 14.0484 45.612 14.0262C45.6242 14.015 45.6363 14.0039 45.6484 14.0039H49.4742C49.4864 14.0039 49.4985 14.015 49.5106 14.0262L52.4042 17.3187L55.3462 14.0262C55.3583 14.015 55.3704 14.0039 55.3825 14.0039H58.4941C58.5062 14.0039 58.5304 14.015 58.5425 14.0262C58.5546 14.0484 58.5425 14.0595 58.5304 14.0818L53.9902 19.0984L59.1963 24.9715C59.2084 24.9827 59.2084 25.0049 59.2084 25.016C59.1842 25.0383 59.1721 25.0383 59.1479 25.0383Z" fill="#191825" fill-opacity="0.5"/>
<path d="M79.8391 15.9384C78.1441 15.9384 76.9939 16.8839 76.6549 18.519H82.4179V18.4078C82.4179 17.1063 81.3646 15.9384 79.8391 15.9384ZM85.3842 20.2098C85.3721 20.2209 85.36 20.232 85.3478 20.232H76.5944C76.776 22.1007 78.0956 23.1686 80.2386 23.1686C81.5583 23.1686 82.9627 22.757 84.9362 21.7893C84.9725 21.767 85.0089 21.8004 85.0089 21.8338V24.3032C85.0089 24.3254 84.9967 24.3365 84.9846 24.3365C83.1443 25.0484 81.2919 25.5378 79.8391 25.5378C76.0737 25.5378 73.3375 23.0128 73.3375 19.5424C73.3375 16.0719 76.0737 13.5469 79.8391 13.5469C83.2775 13.5469 85.481 15.6714 85.481 18.5969C85.481 19.0752 85.3963 20.1764 85.3842 20.2098Z" fill="#191825" fill-opacity="0.5"/>
<path d="M103.158 11.7112C102.08 11.7112 101.208 10.9215 101.208 9.95373C101.208 8.95263 102.08 8.14062 103.158 8.14062C104.235 8.14062 105.107 8.95263 105.107 9.95373C105.107 10.9215 104.235 11.7112 103.158 11.7112ZM101.584 25.037C101.547 25.037 101.535 25.0259 101.535 24.9925V14.036C101.535 14.0138 101.547 13.9915 101.571 13.9915H104.731C104.756 13.9915 104.768 14.0138 104.768 14.036V24.9925C104.768 25.0259 104.744 25.037 104.719 25.037H101.584Z" fill="#191825" fill-opacity="0.5"/>
<path d="M64.935 23.391C64.3659 23.391 63.7848 23.3132 63.1068 23.1574L63.1189 16.1275C63.9059 15.8939 64.5839 15.7938 65.2619 15.7938C67.4533 15.7938 68.9182 17.2732 68.9182 19.4867C68.9182 21.856 67.3564 23.391 64.935 23.391ZM65.7946 13.5469C64.8986 13.5469 64.0027 13.6915 63.0584 13.9918H59.9105C59.8863 13.9918 59.8621 14.0141 59.8621 14.0363V32.0005C60.8064 31.8782 61.9687 31.5667 63.1068 30.8326V25.371C63.8816 25.4711 64.5233 25.5378 65.1408 25.5378C69.4509 25.5378 72.2356 23.1686 72.2356 19.4979C72.2356 15.994 69.5841 13.5469 65.7946 13.5469Z" fill="#191825" fill-opacity="0.5"/>
<path d="M95.8325 22.4771C94.8519 22.9554 93.968 23.1779 93.1448 23.1779C91.1955 23.1779 90.0211 21.9098 90.0211 19.7852C90.0211 17.3381 91.5103 15.7475 93.8228 15.7475C94.4644 15.7475 95.0819 15.8921 95.8325 16.2035V22.4771ZM95.8325 8.1947V13.9232C94.9124 13.6785 94.1012 13.5673 93.2779 13.5673C89.5247 13.5673 86.7037 16.159 86.7037 19.6073C86.7037 23.0332 89.1978 25.5249 92.6363 25.5249C93.8228 25.5249 94.9366 25.2468 96.2442 24.635V25.625C97.1038 25.4693 98.0966 25.1578 99.0773 24.5127V7.01562C98.1208 7.13798 96.9827 7.43831 95.8325 8.1947Z" fill="#191825" fill-opacity="0.5"/>
<path d="M115.725 22.4579C114.768 22.9584 113.957 23.2031 113.231 23.2031C111.136 23.2031 109.889 21.9351 109.889 19.8105C109.889 17.3967 111.366 15.7727 113.558 15.7727C114.139 15.7727 114.853 15.9841 115.725 16.4068V22.4579ZM118.969 13.8595C118.969 13.7928 118.909 13.7372 118.836 13.7372H116.282C116.209 13.7372 116.136 13.7928 116.136 13.8595V14.26H116.076C114.901 13.7817 113.884 13.5703 112.904 13.5703C109.368 13.5703 106.596 16.2622 106.596 19.7104C106.596 23.192 109.078 25.5279 112.771 25.5279C113.751 25.5279 115.023 25.4612 116.209 24.2154V25.628C117.044 25.4612 118.037 25.1386 118.969 24.5157V13.8595Z" fill="#191825" fill-opacity="0.5"/>
<path d="M36.8586 22.3002H44.7888C44.6677 23.1122 44.365 24.0688 43.687 25.0365H35.4421C34.4372 25.0365 33.6018 24.3135 33.5049 23.4125C33.5049 23.4014 33.4928 23.3902 33.4928 23.368V8.99663C33.4928 8.9855 33.5049 8.97438 33.5049 8.96326C33.6018 8.05114 34.4372 7.32812 35.4421 7.32812H44.7767C44.6556 8.14013 44.3529 9.11898 43.6628 10.0867H36.8586V14.0021H43.6023C43.6265 14.0021 43.6507 14.0244 43.6507 14.0466V16.7607C43.6507 16.783 43.6265 16.8052 43.6023 16.8052H36.8586V22.3002Z" fill="#191825" fill-opacity="0.5"/>
<path d="M26.9308 25.2685C26.1439 25.2685 25.6596 24.7012 25.6596 24.0115C25.6596 23.2774 26.2165 22.7546 26.9308 22.7546C27.6331 22.7546 28.19 23.2662 28.19 24.0115C28.19 24.7568 27.6331 25.2685 26.9308 25.2685ZM26.9308 22.6211C26.1318 22.6211 25.4417 23.1773 25.4417 24.0115C25.4417 24.8013 26.0591 25.4019 26.9308 25.4019C27.7178 25.4019 28.4079 24.8458 28.4079 24.0115C28.4079 23.1773 27.7299 22.6211 26.9308 22.6211Z" fill="#191825" fill-opacity="0.5"/>
<path d="M26.5794 23.9027V23.391H26.9547C27.1484 23.391 27.3663 23.4133 27.3663 23.6246C27.3663 23.8805 27.1605 23.8916 26.9305 23.8916C26.9184 23.9027 26.5794 23.9027 26.5794 23.9027ZM27.6327 23.658C27.6327 23.3243 27.4148 23.1797 26.9789 23.1797H26.3009V24.8259H26.5915V24.1252H26.8699L27.33 24.8259H27.669L27.1726 24.1029C27.439 24.0807 27.6327 23.9583 27.6327 23.658Z" fill="#191825" fill-opacity="0.5"/>
<path d="M121.584 15.8159C120.797 15.8159 120.313 15.2486 120.313 14.559C120.313 13.8248 120.87 13.302 121.584 13.302C122.287 13.302 122.844 13.8137 122.844 14.559C122.844 15.3042 122.287 15.8159 121.584 15.8159ZM121.584 13.1797C120.785 13.1797 120.095 13.7359 120.095 14.5701C120.095 15.3599 120.713 15.9605 121.584 15.9605C122.371 15.9605 123.061 15.4044 123.061 14.5701C123.061 13.7247 122.371 13.1797 121.584 13.1797Z" fill="#191825" fill-opacity="0.5"/>
<path d="M121.221 14.4463V13.9457H121.597C121.79 13.9457 122.008 13.968 122.008 14.1793C122.008 14.4351 121.803 14.4463 121.573 14.4463H121.221ZM122.287 14.2127C122.287 13.879 122.069 13.7344 121.633 13.7344H120.955V15.3806H121.246V14.6799H121.524L121.984 15.3806H122.323L121.827 14.6576C122.081 14.6354 122.287 14.513 122.287 14.2127Z" fill="#191825" fill-opacity="0.5"/>
<path d="M16.7 10.0759L16.131 8.58534L11.2397 2.58985L12.1114 2.38963L20.5259 9.07476L25.4777 7.77333C26.0589 7.63985 26.7248 7.60648 27.2211 7.60648C25.6714 4.52531 22.8141 1.98919 19.0609 0.765622C11.6392 -1.67039 3.46686 1.9002 0.827496 8.72994C0.00420753 10.8434 -0.1774 13.0236 0.161601 15.0925L12.0145 11.3106L16.7 10.0759Z" fill="#191825" fill-opacity="0.5"/>
<path d="M27.7539 8.78516C27.3181 9.04099 26.6764 9.38582 26.0468 9.57491L21.0829 10.8763L17.7776 20.6426L16.918 20.8985L17.6202 13.4458L17.2328 11.8997L12.5836 13.1233L0.282715 15.7595C1.2634 20.0976 4.60498 23.8907 9.48417 25.4813C16.918 27.9173 25.0782 24.3467 27.7297 17.517C28.8678 14.5915 28.7951 11.5215 27.7539 8.78516Z" fill="#191825" fill-opacity="0.5"/>
<path d="M17.2208 11.8894L17.6082 13.4355L16.906 20.8882L17.7656 20.6323L21.0709 10.866L26.0348 9.56459C26.6644 9.37549 27.3061 9.04179 27.7419 8.77483C27.5845 8.37439 27.415 7.98507 27.2213 7.59576C26.7128 7.59576 26.059 7.618 25.4779 7.76261L20.526 9.06404L12.1116 2.37891L11.2398 2.57913L16.119 8.57461L16.6881 10.0651L12.0026 11.2998L0.149658 15.0818C0.18598 15.3042 0.234408 15.5378 0.282837 15.7603L12.5716 13.1018L17.2208 11.8894Z" fill="white"/>
</svg>
