<svg width="174" height="32" viewBox="0 0 174 32" fill="none" xmlns="http://www.w3.org/2000/svg">
<path d="M100.006 31.14L113.31 1.03163C113.52 0.57475 113.274 0.181833 112.762 0.181833H103.442C103.169 0.197332 102.905 0.285015 102.677 0.435924C102.449 0.586832 102.265 0.795556 102.144 1.04077L89.0041 31.14C88.8122 31.606 89.0589 31.9898 89.5615 31.9898H98.7082C99.2199 31.9898 99.8047 31.606 100.006 31.14ZM147.713 23.035L168.364 0.190971H144.213L138.749 8.99048H148.225L127.236 31.999H152.794L162.315 23.035H147.713ZM59.3343 0.181833H43.3435C42.8694 0.209305 42.411 0.361515 42.0147 0.623061C41.6184 0.884606 41.2982 1.2462 41.0865 1.67126L28.504 30.5095C28.1385 31.3319 28.5863 31.999 29.4818 31.999H37.404C38.2995 31.999 39.3229 31.3319 39.6702 30.5187L43.2613 22.3405H46.9803C48.1407 22.2674 48.6342 22.6969 47.9945 24.0401L45.235 30.5095C44.8877 31.3319 45.3264 31.999 46.2218 31.999H54.1441C54.62 31.974 55.0807 31.8229 55.4789 31.5612C55.8771 31.2994 56.1986 30.9365 56.4103 30.5095L60.0105 22.1852C61.1435 19.4804 59.5079 17.3879 57.1321 17.2783C59.2338 16.5199 61.171 14.4274 62.039 12.5267L63.9031 8.14069C66.1509 3.0419 64.5519 0.11787 59.3343 0.190971M54.6741 9.28289L52.7004 13.6232C52.2435 14.6649 51.5856 14.7472 50.9277 14.7198H46.4777L49.4565 7.95793H53.7238C54.7655 8.0219 55.0305 8.39654 54.6741 9.28289ZM90.457 0.172696H73.5159C73.1766 0.190378 72.8481 0.297824 72.5639 0.484053C72.2797 0.670282 72.0501 0.928617 71.8985 1.23266L58.9322 30.9299C58.6855 31.5147 58.9871 31.9807 59.6267 31.9807H77.7648C83.5124 31.8985 86.8111 30.6283 89.4336 24.5427L91.2976 20.4856C92.7597 17.0133 91.3251 15.5056 88.5838 15.067C90.8682 14.3634 92.586 12.2161 93.3262 10.3246L94.843 7.10814C96.7071 2.81346 95.1537 0.11787 90.4478 0.172696M82.1418 20.0927L80.9904 22.4045C80.4147 24.0127 79.4096 24.4513 77.9933 24.4696H72.6935L75.2337 18.4845H80.5335C82.0321 18.5941 82.6169 18.9596 82.1418 20.0927ZM85.1846 9.43822L84.3896 11.2657L84.2708 11.5033C84.1388 11.8845 83.8844 12.2114 83.5472 12.4329C83.21 12.6543 82.809 12.758 82.4067 12.7278H77.8105L79.9122 7.88483H84.5998C85.4404 7.93966 85.5775 8.48791 85.1846 9.43822ZM116.243 0.181833L112.305 8.99048H117.925C118.308 8.99048 118.491 9.26461 118.336 9.62098L108.513 31.3685C108.348 31.7157 108.54 31.999 108.924 31.999H118.93C119.314 31.999 119.752 31.7157 119.907 31.3593L129.337 9.62098C129.428 9.43813 129.565 9.28256 129.735 9.17017C129.905 9.05779 130.102 8.99262 130.306 8.98135H136.072L141.5 0.181833H116.243ZM33.2282 11.019L34.4709 8.30516C36.9746 2.58502 35.3207 0.127008 30.4046 0.190971H18.5715C13.7011 0.127008 9.64401 2.86829 7.39616 7.96707L3.74112 18.2926H0.287109L6.8936 27.2109L17.813 18.2926H15.0352L18.2425 10.8454C18.7633 9.62098 19.6588 9.03617 20.6183 8.99048H22.4823C22.921 9.00876 23.2225 9.14582 23.3961 9.33771L29.1893 4.46737L33.2282 11.019Z" fill="#191825" fill-opacity="0.5"/>
<path d="M6.64697 29.8327L1.78576 23.674L1.52991 24.2222C-0.727077 29.3576 -0.352435 31.9161 4.51791 31.9892H16.1958C21.0296 31.9161 25.2603 29.3576 27.5264 24.2222L30.9987 16.2634H34.1055L28.8057 7.33594L17.9776 16.2634H20.9473L18.7543 21.3347C18.2243 22.413 17.4202 22.9978 16.5613 23.0343H15.0079L6.64697 29.8327Z" fill="#191825" fill-opacity="0.5"/>
<path d="M172.211 0.000121574C172.641 0.000121574 173.006 0.155461 173.308 0.457002C173.609 0.758543 173.765 1.12405 173.765 1.55351C173.765 1.97384 173.609 2.33935 173.308 2.65003C173.006 2.96071 172.641 3.10691 172.211 3.10691C172.007 3.11005 171.804 3.07111 171.615 2.99251C171.427 2.91391 171.256 2.79733 171.115 2.65003C170.813 2.33935 170.658 1.97384 170.658 1.55351C170.658 1.13318 170.813 0.749405 171.115 0.457002C171.257 0.310133 171.427 0.193842 171.616 0.115274C171.804 0.0367063 172.007 -0.00248031 172.211 0.000121574ZM172.211 2.8145C172.379 2.81829 172.546 2.78783 172.701 2.72499C172.857 2.66214 172.998 2.56823 173.116 2.449C173.236 2.33132 173.33 2.19028 173.393 2.03467C173.455 1.87905 173.486 1.71216 173.481 1.54438C173.484 1.37812 173.454 1.21297 173.391 1.05902C173.328 0.905057 173.234 0.765513 173.116 0.648891C172.998 0.52922 172.857 0.435021 172.702 0.372144C172.546 0.309268 172.379 0.279057 172.211 0.283387C172.045 0.279772 171.88 0.310346 171.726 0.373218C171.572 0.436089 171.432 0.529918 171.316 0.648891C171.069 0.895607 170.95 1.19715 170.95 1.54438C170.95 1.89161 171.069 2.20228 171.316 2.449C171.562 2.69571 171.864 2.8145 172.211 2.8145ZM173.006 2.3759H172.641L172.184 1.71799H171.992V2.3759H171.663V0.703717H172.184C172.367 0.703717 172.513 0.749405 172.622 0.831644C172.732 0.92302 172.796 1.04181 172.796 1.19715C172.796 1.39818 172.686 1.55351 172.476 1.63575L173.006 2.3759ZM172.001 1.44386H172.175C172.385 1.44386 172.485 1.36162 172.485 1.20629C172.485 1.05095 172.394 0.977845 172.184 0.977845H172.001V1.44386Z" fill="#191825" fill-opacity="0.5"/>
</svg>
