<svg width="104" height="32" viewBox="0 0 104 32" fill="none" xmlns="http://www.w3.org/2000/svg">
<path d="M54.7039 8.04048C54.7039 9.19374 53.7746 10.1224 52.6213 10.1224C51.4681 10.1224 50.5395 9.19374 50.5395 8.04048C50.5395 6.88723 51.4364 5.9586 52.6213 5.9586C53.8072 5.9906 54.7039 6.91955 54.7039 8.04048ZM46.1191 12.2369V12.7495C46.1191 12.7495 45.1265 11.4676 43.0123 11.4676C39.5211 11.4676 36.798 14.1264 36.798 17.8099C36.798 21.4617 39.4891 24.1522 43.0123 24.1522C45.1585 24.1522 46.1191 22.8389 46.1191 22.8389V23.3832C46.1191 23.6395 46.3117 23.8312 46.5677 23.8312H49.1619V11.787H46.5677C46.3117 11.7879 46.1191 12.0126 46.1191 12.2369ZM46.1191 19.9561C45.6391 20.661 44.6778 21.2697 43.5249 21.2697C41.475 21.2697 39.9051 19.9884 39.9051 17.8099C39.9051 15.6317 41.475 14.3504 43.5249 14.3504C44.6461 14.3504 45.6711 14.9911 46.1191 15.6637V19.9561ZM51.0841 11.7879H54.1589V23.8322H51.0841V11.7879ZM97.0176 11.4673C94.9034 11.4673 93.9101 12.7492 93.9101 12.7492V5.9906H90.8353V23.8322H93.4301C93.6864 23.8322 93.8781 23.6078 93.8781 23.3835V22.8392C93.8781 22.8392 94.8714 24.1525 96.9849 24.1525C100.477 24.1525 103.199 21.4626 103.199 17.8108C103.199 14.1591 100.477 11.4673 97.0176 11.4673ZM96.5049 21.2373C95.3194 21.2373 94.3907 20.6293 93.9101 19.9241V15.6317C94.3907 14.9911 95.4157 14.3184 96.5049 14.3184C98.5548 14.3184 100.124 15.5997 100.124 17.7779C100.124 19.9561 98.5551 21.2373 96.5049 21.2373ZM89.2341 16.6893V23.8642H86.1586V17.0413C86.1586 15.0557 85.518 14.2544 83.7894 14.2544C82.8607 14.2544 81.8995 14.7351 81.2899 15.44V23.8325H78.2157V11.7882H80.6493C80.9056 11.7882 81.0979 12.0126 81.0979 12.2369V12.7495C81.9948 11.8202 83.1798 11.4676 84.3647 11.4676C85.7103 11.4676 86.8315 11.8526 87.7285 12.6212C88.8171 13.5181 89.2341 14.6711 89.2341 16.6893ZM70.7512 11.4673C68.6377 11.4673 67.6444 12.7492 67.6444 12.7492V5.9906H64.5696V23.8322H67.1638C67.4201 23.8322 67.6124 23.6078 67.6124 23.3835V22.8392C67.6124 22.8392 68.6057 24.1525 70.7192 24.1525C74.211 24.1525 76.9335 21.4626 76.9335 17.8108C76.9655 14.1588 74.243 11.4673 70.7512 11.4673ZM70.2386 21.2373C69.0537 21.2373 68.125 20.6293 67.6444 19.9241V15.6317C68.125 14.9911 69.15 14.3184 70.2386 14.3184C72.2891 14.3184 73.8583 15.5997 73.8583 17.7779C73.8583 19.9561 72.2891 21.2373 70.2386 21.2373ZM61.9108 11.4673C62.8394 11.4673 63.32 11.6279 63.32 11.6279V14.4784C63.32 14.4784 60.7575 13.6135 59.1563 15.4397V23.8638H56.0808V11.7879H58.6756C58.9319 11.7879 59.1236 12.0122 59.1236 12.2366V12.7492C59.7009 12.0762 60.9501 11.4673 61.9108 11.4673ZM29.9757 22.7429C29.8157 22.3586 29.6554 21.9423 29.4954 21.5897C29.2388 21.0133 28.9825 20.4684 28.7588 19.9561L28.7268 19.9241C26.5163 15.1191 24.1464 10.2507 21.6476 5.4463L21.5516 5.25365C21.2888 4.75525 21.0326 4.25336 20.7833 3.74809C20.4626 3.17114 20.1426 2.56315 19.63 1.9862C18.6051 0.704946 17.1315 0 15.5623 0C13.9604 0 12.5191 0.70495 11.4625 1.92189C10.9819 2.49819 10.6292 3.10683 10.3092 3.68377C10.0592 4.18872 9.80313 4.69061 9.54094 5.18934L9.44462 5.38197C6.97811 10.1864 4.57592 15.0551 2.36572 19.8598L2.33341 19.9234C2.10941 20.4367 1.85277 20.981 1.59646 21.557C1.43646 21.9096 1.27647 22.294 1.11647 22.7103C0.699837 23.8952 0.571513 25.0165 0.73215 26.17C1.08446 28.5726 2.68571 30.5898 4.89623 31.4874C5.72917 31.84 6.59411 32 7.49073 32C7.74705 32 8.06705 31.968 8.32369 31.9357C9.38094 31.8077 10.4699 31.4557 11.5271 30.8471C12.8404 30.1101 14.0896 29.0535 15.4989 27.5159C16.9081 29.0535 18.1894 30.1101 19.4707 30.8471C20.5282 31.4557 21.6168 31.8077 22.6738 31.9357C22.9301 31.9683 23.2507 32 23.507 32C24.404 32 25.3006 31.84 26.1012 31.4874C28.3438 30.5898 29.913 28.5406 30.2656 26.17C30.52 25.0491 30.392 23.9285 29.9757 22.7429ZM15.5299 24.4085C13.8001 22.2303 12.6788 20.1804 12.2948 18.4512C12.1348 17.7142 12.1025 17.0736 12.1988 16.497C12.2625 15.9843 12.4551 15.5357 12.7114 15.1514C13.3201 14.2871 14.345 13.7421 15.5303 13.7421C16.7158 13.7421 17.7728 14.2548 18.3494 15.1514C18.6057 15.5357 18.7977 15.9846 18.8624 16.497C18.958 17.0739 18.926 17.7462 18.766 18.4512C18.3804 20.1484 17.2592 22.1986 15.5299 24.4085ZM28.3098 25.914C28.0858 27.5796 26.9646 29.0215 25.3953 29.6621C24.6267 29.9821 23.7934 30.0784 22.9611 29.9821C22.1605 29.8858 21.3593 29.6295 20.527 29.1495C19.3737 28.5082 18.2208 27.5159 16.8752 26.042C18.9891 23.4478 20.2703 21.077 20.751 18.9635C20.9753 17.9702 21.0076 17.0736 20.911 16.2403C20.7833 15.4397 20.4946 14.7027 20.0463 14.0621C19.0527 12.6202 17.3869 11.7879 15.5296 11.7879C13.6724 11.7879 12.0065 12.6529 11.0135 14.0621C10.5652 14.7027 10.2766 15.4397 10.1486 16.2403C10.0206 17.0736 10.0523 18.0022 10.3086 18.9635C10.7889 21.077 12.1022 23.4795 14.184 26.074C12.8708 27.5476 11.6855 28.5409 10.5323 29.1815C9.69933 29.6621 8.89903 29.9184 8.09841 30.0141C7.23378 30.1104 6.40052 29.9821 5.6639 29.6941C4.09465 29.0535 2.97339 27.6116 2.74939 25.946C2.6534 25.1454 2.71708 24.3448 3.03771 23.4478C3.13339 23.1272 3.29402 22.8072 3.45402 22.4229C3.67833 21.9103 3.93401 21.3653 4.19064 20.821L4.22297 20.7573C6.43284 15.9843 8.80303 11.1156 11.2695 6.37523L11.3655 6.1826C11.6222 5.70261 11.8785 5.18998 12.1345 4.70935C12.3908 4.19672 12.6788 3.71609 13.0314 3.29945C13.7041 2.53147 14.6007 2.11452 15.5939 2.11452C16.5872 2.11452 17.4838 2.53147 18.1564 3.29945C18.5091 3.71705 18.7971 4.19768 19.0534 4.70935C19.31 5.18998 19.5663 5.70261 19.822 6.1826L19.9183 6.37523C22.3472 11.1353 24.6859 15.9409 26.9332 20.7893V20.8213C27.1899 21.3346 27.4139 21.9106 27.6702 22.4239C27.8302 22.8075 27.9905 23.1275 28.0865 23.4482C28.3422 24.2802 28.4382 25.0814 28.3098 25.914Z" fill="#191825" fill-opacity="0.5"/>
</svg>
