<svg width="213" height="32" viewBox="0 0 213 32" fill="none" xmlns="http://www.w3.org/2000/svg">
<path d="M23.5658 19.2256C25.3875 24.1611 30.878 26.6875 35.815 24.87C40.7492 23.0399 43.2812 17.5549 41.4524 12.618C39.6293 7.67534 34.1472 5.15318 29.2032 6.9749C24.2634 8.80367 21.7412 14.2858 23.5658 19.2256Z" fill="white"/>
<path d="M11.3727 25.4216C16.6387 25.4216 20.9077 21.1527 20.9077 15.8866C20.9077 10.6205 16.6387 6.35156 11.3727 6.35156C6.10663 6.35156 1.83765 10.6205 1.83765 15.8866C1.83765 21.1527 6.10663 25.4216 11.3727 25.4216Z" fill="white"/>
<path d="M12.9984 15.7841C12.9984 16.7557 12.209 17.5521 11.2374 17.5521C10.2616 17.5521 9.47363 16.7571 9.47363 15.7841C9.47363 14.8139 10.2616 14.0273 11.2374 14.0273C12.209 14.0288 12.9984 14.8139 12.9984 15.7841Z" fill="#191825" fill-opacity="0.5"/>
<path d="M34.2471 15.7841C34.2471 16.7557 33.4605 17.5521 32.4889 17.5521C31.5103 17.5521 30.7251 16.7571 30.7251 15.7841C30.7251 14.8139 31.5103 14.0273 32.4889 14.0273C33.4619 14.0288 34.2471 14.8139 34.2471 15.7841Z" fill="#191825" fill-opacity="0.5"/>
<path d="M5.99829 15.7868C5.99829 18.6775 8.34957 21.0246 11.2403 21.0246C14.124 21.0246 16.4738 18.6775 16.4738 15.7868C16.4738 12.9031 14.1226 10.5547 11.2403 10.5547C8.35098 10.5575 5.99829 12.9046 5.99829 15.7868ZM7.80447 15.7868C7.80447 13.8959 9.34939 12.358 11.2431 12.358C13.134 12.358 14.6705 13.9001 14.6705 15.7868C14.6705 17.6834 13.134 19.2241 11.2431 19.2241C9.34939 19.2255 7.80447 17.6862 7.80447 15.7868Z" fill="#191825" fill-opacity="0.5"/>
<path d="M27.2498 15.7868C27.2498 18.6775 29.5982 21.0246 32.4875 21.0246C35.3726 21.0246 37.7197 18.6775 37.7197 15.7868C37.7197 12.9031 35.3726 10.5547 32.4875 10.5547C29.5996 10.5575 27.2498 12.9046 27.2498 15.7868ZM29.0559 15.7868C29.0559 13.8959 30.5966 12.358 32.4918 12.358C34.3827 12.358 35.9177 13.9001 35.9177 15.7868C35.9177 17.6834 34.3827 19.2241 32.4918 19.2241C30.5938 19.2255 29.0559 17.6862 29.0559 15.7868Z" fill="#191825" fill-opacity="0.5"/>
<path d="M28.8362 5.97362C29.9405 5.56691 31.0702 5.3692 32.1858 5.33814C29.1468 3.97821 25.7068 3.28906 21.8953 3.28906C18.1135 3.28906 14.6226 3.99374 11.585 5.29295C17.0826 5.40168 21.5521 9.70742 21.9377 15.1344C22.0309 13.8889 22.3359 12.6575 22.8739 11.491C24.0587 8.91095 26.1784 6.95367 28.8362 5.97362Z" fill="white"/>
<path d="M41.0344 9.6225C41.5315 7.49434 43.1089 5.36477 43.1089 5.36477L36.0296 5.36054C32.06 2.79743 27.2388 1.4375 21.8979 1.4375C16.3537 1.4375 11.3475 2.82991 7.40048 5.41137L0.764648 5.41702C0.764648 5.41702 2.3237 7.52258 2.82784 9.63521C1.53711 11.3905 0.770297 13.5469 0.770297 15.8883C0.770297 21.7334 5.52793 26.4882 11.3758 26.4882C14.7184 26.4882 17.6995 24.9305 19.6441 22.5101L21.9022 25.8908L24.1772 22.4804C25.201 23.7824 26.5214 24.8387 28.0691 25.5547C30.6436 26.7381 33.5286 26.8553 36.185 25.8739C41.6713 23.8446 44.4886 17.7284 42.4593 12.2492C42.1034 11.2846 41.6176 10.4077 41.0344 9.6225ZM21.8965 3.28887C25.708 3.28887 29.1481 3.97801 32.1871 5.33935C31.07 5.36901 29.9417 5.56813 28.8374 5.97201C26.1797 6.95206 24.06 8.90935 22.878 11.4852C22.3399 12.6516 22.0363 13.883 21.9417 15.1286C21.5534 9.7044 17.0838 5.39866 11.5862 5.2871C14.6224 3.99213 18.1119 3.28887 21.8965 3.28887ZM18.383 20.6248C16.8607 22.8702 14.2849 24.3501 11.3729 24.3501C6.70428 24.3501 2.90551 20.5485 2.90551 15.8898C2.90551 11.2183 6.70569 7.42373 11.3729 7.42373C16.0402 7.42373 19.839 11.2183 19.839 15.8898C19.839 16.175 19.7839 16.4433 19.7542 16.7187C19.613 18.1492 19.1526 19.4894 18.383 20.6248ZM35.4436 23.8672C33.3225 24.6467 31.022 24.5605 28.9673 23.613C27.5099 22.9379 26.3166 21.8802 25.4566 20.5669C25.1064 20.0359 24.7985 19.4725 24.5712 18.8553C24.3127 18.1577 24.1842 17.4389 24.115 16.7145C23.9738 15.2458 24.1871 13.7602 24.8197 12.3833C25.7687 10.3286 27.4577 8.7653 29.5788 7.98013C33.9594 6.3646 38.8356 8.61138 40.454 12.9905C42.0709 17.3697 39.8227 22.246 35.4436 23.8672Z" fill="#191825" fill-opacity="0.5"/>
<path d="M55.6168 2.98674L52.5128 4.05859C52.5128 4.05859 52.5128 7.77545 52.5128 8.10872C52.188 8.10872 49.0728 8.10872 49.0728 8.10872V10.8243C49.0728 10.8243 52.092 10.8243 52.4196 10.8243C52.4196 11.1774 52.4196 19.5431 52.4196 19.5431C52.4196 23.6865 53.8304 25.3867 57.3001 25.3867C58.1799 25.3867 59.0201 25.278 59.8632 25.0478L60.0002 25.0139L59.9621 22.198L59.7248 22.2884C59.0427 22.5243 58.5089 22.6401 58.0966 22.6401C56.4669 22.6401 55.8625 21.7235 55.8625 19.2494C55.8625 19.2494 55.8625 11.176 55.8625 10.8286C56.193 10.8286 59.8322 10.8286 59.8322 10.8286V8.10872C59.8322 8.10872 56.1944 8.10872 55.8625 8.10872C55.8625 7.77262 55.8625 2.90625 55.8625 2.90625L55.6168 2.98674Z" fill="#191825" fill-opacity="0.5"/>
<path d="M66.3491 10.8586C66.3491 9.90253 66.3491 8.10765 66.3491 8.10765H63.2V25.0863H66.6428V16.5638C66.6428 12.991 68.144 11.0224 70.8638 11.0224C71.2578 11.0224 71.6406 11.0817 72.1066 11.213L72.3297 11.2766L72.4427 7.92548L70.9613 7.8125C68.9659 7.81109 67.3546 8.88858 66.3491 10.8586Z" fill="#191825" fill-opacity="0.5"/>
<path d="M78.5789 8.10622H75.3196V25.0863H78.7625V8.10622H78.5789ZM74.9863 3.13111C74.9863 4.26085 75.9071 5.17736 77.034 5.17736C78.1637 5.17736 79.0817 4.26085 79.0817 3.13111C79.0817 2.00278 78.1637 1.08204 77.034 1.08204C75.9071 1.07921 74.9863 2.00278 74.9863 3.13111Z" fill="#191825" fill-opacity="0.5"/>
<path d="M90.9215 7.70703C88.5589 7.70703 86.572 8.82548 85.2474 10.8604C85.2474 10.047 85.2474 8.10244 85.2474 8.10244H82.0996V31.9979H85.5453C85.5453 31.9979 85.5453 23.6534 85.5453 22.7355C86.788 24.4258 88.5702 25.355 90.7888 25.355C95.1411 25.355 97.9527 21.7836 97.9527 16.2691C97.9527 11.1485 95.1256 7.70703 90.9215 7.70703ZM89.9598 22.5702C87.2357 22.5702 85.5439 20.2415 85.5439 16.5007C85.5439 12.8897 87.3289 10.5568 90.0911 10.5568C92.7531 10.5568 94.3446 12.7683 94.3446 16.4654C94.346 20.2288 92.6641 22.5702 89.9598 22.5702Z" fill="#191825" fill-opacity="0.5"/>
<path d="M108.016 7.71094C105.91 7.71094 104.066 8.10917 102.374 8.92259L102.269 8.97343L102.306 11.9122L102.577 11.7597C104.194 10.8559 105.725 10.3941 107.119 10.3941C109.613 10.3941 111.045 11.8232 111.045 14.3214C111.045 14.3214 111.045 14.3934 111.045 14.4668C110.741 14.4668 109.075 14.4668 109.075 14.4668C103.406 14.4668 100.288 16.5201 100.288 20.2426C100.288 23.2322 102.539 25.3222 105.762 25.3222C108.133 25.3222 109.967 24.3902 111.275 22.6363C111.275 23.3184 111.275 25.0878 111.275 25.0878H114.386V14.8128C114.384 10.1032 112.242 7.71094 108.016 7.71094ZM111.039 17.921C111.039 20.8456 109.279 22.7379 106.557 22.7379C104.889 22.7379 103.725 21.6421 103.725 20.0746C103.725 18.0142 105.695 16.883 109.271 16.883C109.271 16.883 110.744 16.883 111.042 16.883C111.039 17.1471 111.039 17.921 111.039 17.921Z" fill="#191825" fill-opacity="0.5"/>
<path d="M129.007 0C129.007 0 129.007 9.46584 129.007 10.412C127.738 8.64678 125.971 7.71192 123.702 7.71192C119.489 7.71192 116.659 11.1802 116.659 16.3347C116.659 21.6445 119.53 25.3529 123.633 25.3529C126.063 25.3529 127.958 24.2768 129.271 22.1853C129.271 23.0312 129.271 25.0888 129.271 25.0888H132.454V0H129.007ZM124.525 22.5031C121.901 22.5031 120.272 20.2154 120.272 16.5324C120.272 12.8452 121.915 10.4614 124.463 10.4614C127.307 10.4614 129.004 12.7294 129.004 16.5324C129.007 20.1659 127.253 22.5031 124.525 22.5031Z" fill="#191825" fill-opacity="0.5"/>
<path d="M147.839 8.10547L142.957 17.9102L138.444 8.10547H134.565L142.885 25.0855L151.432 8.10547H147.839Z" fill="#191825" fill-opacity="0.5"/>
<path d="M156.444 8.10622H153.183V25.0863H156.63V8.10622H156.444ZM152.854 3.13111C152.854 4.26085 153.773 5.17736 154.902 5.17736C156.036 5.17736 156.949 4.26085 156.949 3.13111C156.949 2.00278 156.033 1.08204 154.902 1.08204C153.775 1.07921 152.854 2.00278 152.854 3.13111Z" fill="#191825" fill-opacity="0.5"/>
<path d="M160.667 12.4613C160.667 14.8493 162.308 16.1075 165.338 17.5903C167.249 18.5294 168.247 19.083 168.247 20.4062C168.247 21.7633 167.022 22.6403 165.118 22.6403C163.772 22.6403 162.278 22.2618 160.798 21.5346L160.547 21.4103L160.435 24.4041L160.55 24.4465C161.965 25.0099 163.452 25.2853 164.988 25.2853C169.199 25.2853 171.918 23.2786 171.918 20.1732C171.918 17.5847 170.196 16.2699 167.212 14.8775C165.028 13.8509 164.111 13.2535 164.111 12.1647C164.111 11.1338 165.131 10.4616 166.707 10.4616C168.13 10.4616 169.52 10.778 170.835 11.405L171.083 11.5194L171.233 8.59051L171.096 8.55097C169.67 8.12731 168.262 7.91408 166.906 7.91408C163.175 7.90843 160.667 9.73861 160.667 12.4613Z" fill="#191825" fill-opacity="0.5"/>
<path d="M182.661 7.71094C177.487 7.71094 174.274 11.1185 174.274 16.5978C174.274 22.0799 177.489 25.4818 182.661 25.4818C187.859 25.4818 191.086 22.0785 191.086 16.5978C191.086 11.1199 187.856 7.71094 182.661 7.71094ZM182.691 22.673C179.831 22.673 177.91 20.2186 177.91 16.5653C177.91 12.8922 179.831 10.4294 182.691 10.4294C185.597 10.4294 187.474 12.84 187.474 16.5653C187.474 20.2765 185.6 22.673 182.691 22.673Z" fill="#191825" fill-opacity="0.5"/>
<path d="M197.438 10.8586C197.438 9.90253 197.438 8.10765 197.438 8.10765H194.289V25.0863H197.731V16.5638C197.731 12.991 199.224 11.0224 201.948 11.0224C202.339 11.0224 202.719 11.0817 203.177 11.213L203.41 11.2766L203.517 7.92548L202.041 7.8125C200.055 7.81109 198.446 8.88858 197.438 10.8586Z" fill="#191825" fill-opacity="0.5"/>
<path d="M211.73 7.35641C212.295 7.92834 212.591 8.68809 212.591 9.50575C212.591 10.3601 212.272 11.1255 211.685 11.689C211.072 12.2708 210.312 12.5829 209.519 12.5829C208.69 12.5829 207.927 12.2567 207.334 11.6438C206.768 11.0563 206.447 10.305 206.447 9.50292C206.447 8.68527 206.773 7.89304 207.383 7.29145C207.955 6.73081 208.691 6.42578 209.519 6.42578C210.367 6.42719 211.14 6.74917 211.73 7.35641ZM207.765 7.69392C207.267 8.19101 207.002 8.83072 207.002 9.50575C207.002 10.1638 207.248 10.7696 207.722 11.2526C208.198 11.7497 208.829 12.018 209.506 12.018C210.164 12.018 210.797 11.7652 211.285 11.2907C211.765 10.829 212.029 10.1963 212.029 9.50433C212.029 8.8279 211.784 8.2136 211.318 7.74334C210.829 7.24626 210.209 6.985 209.519 6.985C208.838 6.985 208.24 7.2279 207.765 7.69392ZM209.575 7.75182C210.538 7.75182 211.032 8.10063 211.032 8.73187C211.032 9.16682 210.774 9.50433 210.315 9.64273L211.072 11.1241H210.047L209.415 9.78677H209.149V11.1241H208.219V7.75041L209.575 7.75182ZM209.141 9.23743H209.465C209.879 9.23743 210.078 9.09198 210.078 8.80248C210.078 8.47203 209.869 8.33646 209.415 8.33646H209.141V9.23743Z" fill="#191825" fill-opacity="0.5"/>
</svg>
