<svg width="189" height="32" viewBox="0 0 189 32" fill="none" xmlns="http://www.w3.org/2000/svg">
<mask id="mask0_1156_831" style="mask-type:luminance" maskUnits="userSpaceOnUse" x="0" y="0" width="189" height="32">
<path d="M188.665 0H0.0615234V32H188.665V0Z" fill="white"/>
</mask>
<g mask="url(#mask0_1156_831)">
<mask id="mask1_1156_831" style="mask-type:luminance" maskUnits="userSpaceOnUse" x="0" y="0" width="189" height="32">
<path d="M188.665 0H0.0615234V32H188.665V0Z" fill="white"/>
</mask>
<g mask="url(#mask1_1156_831)">
<path d="M74.0186 3.50239C74.0186 1.9221 75.3005 0.632812 76.8881 0.632812C78.4684 0.632812 79.7577 1.91473 79.7577 3.50239C79.7025 5.08268 78.369 6.31671 76.785 6.26145C75.282 6.2062 74.0775 5.00164 74.0186 3.50239Z" fill="#191825" fill-opacity="0.5"/>
</g>
<mask id="mask2_1156_831" style="mask-type:luminance" maskUnits="userSpaceOnUse" x="0" y="0" width="189" height="32">
<path d="M188.665 0H0.0615234V32H188.665V0Z" fill="white"/>
</mask>
<g mask="url(#mask2_1156_831)">
<path d="M119.243 22.6191C119.243 21.0278 120.525 19.7422 122.101 19.7422C123.689 19.7422 124.975 21.0278 124.975 22.6191C124.975 24.2068 123.689 25.4924 122.101 25.4924C120.525 25.4924 119.243 24.2031 119.243 22.6191Z" fill="#191825" fill-opacity="0.5"/>
</g>
<mask id="mask3_1156_831" style="mask-type:luminance" maskUnits="userSpaceOnUse" x="0" y="0" width="189" height="32">
<path d="M188.665 0H0.0615234V32H188.665V0Z" fill="white"/>
</mask>
<g mask="url(#mask3_1156_831)">
<path d="M26.9894 21.3775C24.525 21.3775 22.8047 19.4178 22.8047 16.6145C22.8047 13.815 24.5213 11.8553 26.9894 11.8553C29.4685 11.8553 31.2072 13.815 31.2072 16.6145C31.2035 19.462 29.509 21.3775 26.9894 21.3775ZM26.9894 7.67061C21.7696 7.67061 17.9791 11.4316 17.9791 16.6145C17.9791 21.7975 21.7733 25.5585 26.9894 25.5585C32.2349 25.5585 36.0365 21.7975 36.0365 16.6182C36.0365 11.4316 32.2275 7.67061 26.9894 7.67061ZM68.4711 17.064C68.2906 16.714 68.0586 16.3862 67.7896 16.0988L67.6312 15.9331L67.797 15.7747C68.0365 15.5205 68.2833 15.2221 68.5153 14.8759L73.1236 8.02424H67.5281L64.0655 13.384C63.8702 13.675 63.4761 13.8113 62.883 13.8113H62.091V3.67751C62.091 1.65149 60.8312 1.37891 59.4646 1.37891H57.1291L57.1328 25.2933H62.0873V18.1249H62.5515C63.1151 18.1249 63.4982 18.1911 63.6787 18.4969L66.412 23.6577C67.1782 25.0575 67.937 25.2969 69.3663 25.2969H73.1752L70.3424 20.6224L68.4711 17.064ZM92.5402 7.63377C90.0169 7.63377 88.4071 8.7536 87.5083 9.70399L87.2099 10.0097L87.1031 9.59716C86.8379 8.58047 85.9464 8.02792 84.6019 8.02792H82.3806L82.3954 25.2969H87.3204V17.3402C87.3204 16.5593 87.4199 15.8889 87.6262 15.27C88.1751 13.4061 89.7038 12.242 91.6119 12.242C93.148 12.242 93.7521 13.0524 93.7521 15.1521V22.6742C93.7521 24.4607 94.5773 25.3006 96.3712 25.3006H98.7103L98.6993 14.3159C98.6993 9.93606 96.5664 7.63377 92.5402 7.63377ZM76.9509 8.02424H74.6155L74.6302 21.3775V25.2933H77.1204L77.2088 25.2969L78.3728 25.2933H79.5258V25.2896H79.5369L79.5479 10.6507C79.5405 8.88253 78.697 8.02424 76.9509 8.02424ZM46.3249 21.3775C43.8606 21.3775 42.1403 19.4178 42.1403 16.6145C42.1403 13.815 43.8606 11.8553 46.3249 11.8553C48.8004 11.8553 50.5427 13.815 50.5427 16.6145C50.539 19.462 48.8446 21.3775 46.3249 21.3775ZM46.3249 7.67061C41.1015 7.67061 37.3073 11.4316 37.3073 16.6145C37.3073 21.7975 41.1015 25.5585 46.3249 25.5585C51.5594 25.5585 55.372 21.7975 55.372 16.6182C55.372 11.4316 51.5631 7.67061 46.3249 7.67061Z" fill="#191825" fill-opacity="0.5"/>
</g>
</g>
<mask id="mask4_1156_831" style="mask-type:luminance" maskUnits="userSpaceOnUse" x="0" y="0" width="189" height="32">
<path d="M188.665 0H0.0615234V32H188.665V0Z" fill="white"/>
</mask>
<g mask="url(#mask4_1156_831)">
<mask id="mask5_1156_831" style="mask-type:luminance" maskUnits="userSpaceOnUse" x="0" y="0" width="189" height="32">
<path d="M188.625 0.628906H0.0615234V31.9585H188.625V0.628906Z" fill="white"/>
</mask>
<g mask="url(#mask5_1156_831)">
<mask id="mask6_1156_831" style="mask-type:luminance" maskUnits="userSpaceOnUse" x="0" y="0" width="189" height="32">
<path d="M188.665 0H0.0615234V32H188.665V0Z" fill="white"/>
</mask>
<g mask="url(#mask6_1156_831)">
<path d="M151.854 21.3749C149.39 21.3749 147.67 19.4152 147.67 16.6119C147.67 13.8123 149.39 11.8526 151.854 11.8526C154.333 11.8526 156.072 13.8123 156.072 16.6119C156.072 19.4594 154.374 21.3749 151.854 21.3749ZM151.854 7.66797C146.631 7.66797 142.837 11.429 142.837 16.6119C142.837 21.7948 146.623 25.5558 151.854 25.5558C157.092 25.5558 160.901 21.7948 160.901 16.6156C160.901 11.429 157.089 7.66797 151.854 7.66797Z" fill="#191825" fill-opacity="0.5"/>
</g>
<mask id="mask7_1156_831" style="mask-type:luminance" maskUnits="userSpaceOnUse" x="0" y="0" width="189" height="32">
<path d="M188.665 0H0.0615234V32H188.665V0Z" fill="white"/>
</mask>
<g mask="url(#mask7_1156_831)">
<path d="M109.076 20.6118C106.383 20.6118 105.429 18.2653 105.429 16.0662C105.429 15.0937 105.676 11.9368 108.825 11.9368C110.387 11.9368 112.468 12.3862 112.468 16.2246C112.465 19.853 110.619 20.6118 109.076 20.6118ZM115.021 7.98054C114.086 7.98054 113.367 8.35259 113.006 9.03406L112.874 9.29929L112.645 9.09669C111.85 8.40784 110.424 7.59375 108.114 7.59375C103.51 7.59375 100.412 11.049 100.412 16.1988C100.412 21.3412 103.62 24.9328 108.21 24.9328C109.776 24.9328 111.017 24.5644 111.997 23.8203L112.373 23.5367V24.0155C112.373 26.3252 110.881 27.5961 108.177 27.5961C106.858 27.5961 105.665 27.2756 104.865 26.9846C103.823 26.6678 103.208 26.933 102.788 27.9755L102.394 28.9406L101.841 30.3514L102.184 30.5319C103.915 31.4529 106.169 31.998 108.203 31.998C112.395 31.998 117.29 29.8541 117.29 23.8129L117.305 7.96949H115.021" fill="#191825" fill-opacity="0.5"/>
</g>
</g>
</g>
<mask id="mask8_1156_831" style="mask-type:luminance" maskUnits="userSpaceOnUse" x="0" y="0" width="189" height="32">
<path d="M188.665 0H0.0615234V32H188.665V0Z" fill="white"/>
</mask>
<g mask="url(#mask8_1156_831)">
<mask id="mask9_1156_831" style="mask-type:luminance" maskUnits="userSpaceOnUse" x="0" y="0" width="189" height="32">
<path d="M188.665 0H0.0615234V32H188.665V0Z" fill="white"/>
</mask>
<g mask="url(#mask9_1156_831)">
<path d="M8.65552 21.1754L4.644 21.1717V16.3829C4.644 15.3552 5.04184 14.8284 5.91487 14.7032H8.64815C10.5968 14.7032 11.8566 15.9335 11.864 17.9227C11.864 19.9671 10.6336 21.1754 8.65552 21.1754ZM4.644 8.25307V6.99325C4.644 5.88815 5.10815 5.36508 6.13589 5.29877H8.18769C9.9448 5.29877 10.9983 6.3523 10.9983 8.11309C10.9983 9.45763 10.2763 11.0232 8.25031 11.0232H4.644V8.25307ZM13.7684 13.0345L13.0464 12.6256L13.6764 12.0841C14.4168 11.4542 15.6434 10.0286 15.6434 7.57159C15.6434 3.81057 12.7296 1.38672 8.21716 1.38672H2.48538C1.1482 1.43461 0.0762581 2.52865 0.0615234 3.86582V25.2016H8.32399C13.3411 25.2016 16.5754 22.472 16.5754 18.2432C16.5754 15.974 15.5256 14.0254 13.7684 13.0345Z" fill="#191825" fill-opacity="0.5"/>
</g>
<mask id="mask10_1156_831" style="mask-type:luminance" maskUnits="userSpaceOnUse" x="0" y="0" width="189" height="32">
<path d="M188.665 0H0.0615234V32H188.665V0Z" fill="white"/>
</mask>
<g mask="url(#mask10_1156_831)">
<path d="M182.893 7.68728C180.837 7.69096 178.889 8.63766 177.607 10.2511L177.25 10.7005L176.97 10.1959C176.056 8.53084 174.491 7.69096 172.302 7.69096C170.015 7.69096 168.479 8.96551 167.764 9.72803L167.3 10.2327L167.12 9.56595C166.862 8.60819 166.007 8.08143 164.718 8.08143H162.648L162.625 25.2842H167.326V17.6884C167.326 17.0217 167.407 16.366 167.573 15.6771C168.022 13.8427 169.256 11.8682 171.33 12.0635C172.604 12.1887 173.231 13.1759 173.231 15.0804V25.2805H177.964V17.6847C177.964 16.8522 178.042 16.226 178.229 15.6072C178.605 13.8537 179.898 12.0561 181.898 12.0561C183.346 12.0561 183.884 12.8739 183.884 15.0804V22.7645C183.884 24.4995 184.657 25.2805 186.396 25.2805H188.606L188.61 14.2995C188.625 9.90853 186.691 7.68728 182.893 7.68728ZM140.115 19.3092C140.1 19.324 138.077 21.4605 135.414 21.4605C132.987 21.4605 130.537 19.9723 130.537 16.6496C130.537 13.7801 132.438 11.7725 135.16 11.7725C136.044 11.7725 137.046 12.0893 137.204 12.6197L137.227 12.7081C137.433 13.4633 138.122 13.9827 138.899 13.979L141.474 13.9827V11.7283C141.474 8.75554 137.698 7.68359 135.153 7.68359C129.716 7.68359 125.774 11.4667 125.774 16.6791C125.774 21.8878 129.675 25.6709 135.053 25.6709C139.72 25.6709 142.255 22.6024 142.281 22.5767L142.413 22.4109L140.372 19.0256L140.115 19.3092Z" fill="#191825" fill-opacity="0.5"/>
</g>
</g>
</svg>
